# xmcd
#
# Track frame offsets:
#	150
#	14547
#	26480
#	42065
#	60642
#	74555
#	89745
#	101167
#	118180
#	132835
#
# Disc length: 1955
#
# Revision: 2
# Processed by: cddbd v1.5.1PL0 Copyright (c) Steve Scherf et al.
# Submitted via: audiograbber 1.83.01
# Normalized: r1:DSETVAR1
#
DISCID=8e07a10a
DTITLE=Various Artist - Welcome To The Country
DYEAR=1991
DGENRE=Country
TTITLE0=Randy Travis - I Won't Need You Anymore
TTITLE1=Sawyer Brown - This Missin' You Heart of Mine
TTITLE2=Reba McEntire - One Promise Too Late
TTITLE3=Billy Joe Royal - I'll Pin A Note On Your Pillow
TTITLE4=Dan Seals - Three Time Loser
TTITLE5=Nitty Gritty Dirt Band - Fishin' In The Dark
TTITLE6=Waylon Jennings - Rough and Rowdy Days
TTITLE7=Restless Heart - Wheels
TTITLE8=T. Graham Brown - She Couldn't Love Me Anymore
TTITLE9=Steve Wariner - Lynda
EXTD=
EXTT0=
EXTT1=
EXTT2=
EXTT3=
EXTT4=
EXTT5=
EXTT6=
EXTT7=
EXTT8=
EXTT9=
PLAYORDER=
